<svg width="112" height="21" viewBox="0 0 112 21" fill="none" xmlns="http://www.w3.org/2000/svg">
<path d="M3.3242 8.9648H4.11727C5.8335 8.9648 6.97825 8.77859 7.54974 8.40653C8.12122 8.03233 8.40785 7.37328 8.40785 6.42973C8.40785 5.41506 8.10263 4.69846 7.49005 4.28351C6.87961 3.86642 5.75523 3.65984 4.11727 3.65984H3.3242V8.9648ZM3.1287 11.5002V20.0443H0.22876V1.00504H4.91034C6.29705 1.00504 7.31707 1.08153 7.97254 1.23414C8.62765 1.38496 9.19735 1.63443 9.68305 1.98076C10.2806 2.42394 10.7477 3.01937 11.0866 3.76957C11.4254 4.51976 11.593 5.34608 11.593 6.24709C11.593 7.14811 11.4254 7.98194 11.0866 8.74321C10.7477 9.50627 10.2806 10.1038 9.68305 10.5377C9.19735 10.8858 8.62765 11.1314 7.97254 11.2786C7.31743 11.4277 6.29741 11.5002 4.91034 11.5002H3.1287ZM29.8965 10.5638C29.8965 9.60134 29.7214 8.68745 29.3715 7.82003C29.0226 6.95702 28.5078 6.17088 27.8561 5.5062C27.2256 4.84571 26.4666 4.32114 25.6259 3.96471C24.7807 3.60552 23.8893 3.42503 22.953 3.42503C22.0166 3.42503 21.127 3.60373 20.28 3.95756C19.4369 4.31318 18.6827 4.82856 18.0241 5.5062C17.3715 6.16362 16.8586 6.94616 16.5162 7.80681C16.1699 8.67423 15.9969 9.59383 15.9969 10.5638C15.9969 11.5263 16.1699 12.4366 16.5162 13.2948C16.8627 14.1539 17.375 14.9364 18.0241 15.5975C18.6831 16.2734 19.4333 16.7887 20.2746 17.1444C21.1159 17.5 22.0076 17.6769 22.9533 17.6769C23.8804 17.6769 24.7628 17.5 25.6002 17.1444C26.4362 16.7887 27.1881 16.2734 27.8565 15.5975C28.5068 14.9339 29.0215 14.1499 29.3719 13.2894C29.7217 12.4255 29.8969 11.5192 29.8969 10.5642M33.1228 10.5642C33.1228 11.9173 32.8697 13.1965 32.3615 14.4006C31.8551 15.605 31.1163 16.6808 30.1446 17.6265C29.1653 18.5704 28.0598 19.2945 26.8293 19.797C25.5988 20.2995 24.3071 20.5508 22.9537 20.5508C21.5838 20.5508 20.2767 20.2977 19.0333 19.7913C17.8035 19.2922 16.6835 18.5567 15.7367 17.6265C14.7649 16.6808 14.028 15.6104 13.5255 14.4134C13.023 13.2165 12.7717 11.9338 12.7717 10.5638C12.7717 9.20319 13.023 7.92046 13.5255 6.71422C14.028 5.50977 14.7653 4.43005 15.7371 3.47721C16.6849 2.54692 17.8072 1.81305 19.0394 1.31777C20.271 0.824553 21.5741 0.576872 22.9533 0.576872C24.3232 0.576872 25.6209 0.824553 26.8475 1.31777C28.0741 1.81278 29.1742 2.53152 30.1442 3.47721C31.116 4.4397 31.8547 5.52478 32.3611 6.73495C32.8694 7.94298 33.1228 9.21999 33.1228 10.5642ZM35.8737 20.0447V1.00683H38.9673V17.2745H45.8862V20.0443L35.8737 20.0447ZM47.6493 1.00719H50.7447V20.0447H47.6493V1.00719ZM60.5435 3.63375V20.0447H57.4481V3.6334H52.3905V1.00683H65.5772V3.6334L60.5435 3.63375ZM67.1965 1.00719H70.2902V20.0447H67.1965V1.00719ZM89.2195 5.63665C88.3428 4.89003 87.4175 4.33176 86.4422 3.95756C85.4668 3.58515 84.4411 3.39894 83.3671 3.39894C81.2859 3.39894 79.594 4.06728 78.2892 5.40183C76.9843 6.73638 76.3327 8.46586 76.3327 10.5899C76.3327 12.645 76.9675 14.3391 78.237 15.6754C79.5065 17.01 81.109 17.6765 83.0415 17.6765C84.1695 17.6765 85.2417 17.4775 86.2599 17.079C87.2781 16.6804 88.2574 16.0775 89.1934 15.2716V18.7691C88.3614 19.3667 87.4547 19.8152 86.4758 20.1094C85.4947 20.4035 84.4336 20.5504 83.2888 20.5504C81.8331 20.5504 80.4854 20.312 79.2513 19.8356C78.0154 19.3592 76.93 18.6573 75.9936 17.7284C75.0665 16.818 74.3517 15.7458 73.8549 14.5117C73.356 13.2758 73.1065 11.9595 73.1065 10.5635C73.1065 9.16745 73.356 7.85684 73.8549 6.63023C74.352 5.40362 75.074 4.32569 76.0197 3.39858C76.9653 2.46218 78.0486 1.75309 79.2699 1.27274C80.4929 0.790957 81.8146 0.550781 83.2366 0.550781C84.3553 0.550781 85.4221 0.712686 86.4364 1.03864C87.4507 1.36459 88.434 1.85567 89.3886 2.51472L89.2195 5.63665ZM108.551 10.5638C108.551 9.60134 108.374 8.68745 108.024 7.82003C107.675 6.95702 107.16 6.17088 106.509 5.5062C105.878 4.84571 105.119 4.32114 104.279 3.96471C103.433 3.60552 102.542 3.42503 101.606 3.42503C100.669 3.42503 99.7796 3.60373 98.9326 3.95756C98.0895 4.31318 97.3353 4.82856 96.6767 5.5062C96.0247 6.16411 95.5119 6.94652 95.1688 7.80681C94.8225 8.67423 94.6495 9.59383 94.6495 10.5638C94.6495 11.5263 94.8225 12.4366 95.1688 13.2948C95.5151 14.1529 96.0194 14.9217 96.6767 15.5975C97.3357 16.2734 98.0859 16.7887 98.9272 17.1444C99.7685 17.5 100.66 17.6769 101.606 17.6769C102.533 17.6769 103.415 17.5 104.253 17.1444C105.089 16.7887 105.841 16.2734 106.509 15.5975C107.159 14.9339 107.674 14.1499 108.024 13.2894C108.374 12.4255 108.551 11.5192 108.551 10.5642M111.775 10.5642C111.775 11.9173 111.522 13.1965 111.014 14.4006C110.508 15.605 109.769 16.6808 108.797 17.6265C107.818 18.5704 106.712 19.2945 105.482 19.797C104.251 20.2995 102.96 20.5508 101.606 20.5508C100.236 20.5508 98.9293 20.2977 97.686 19.7913C96.4408 19.2831 95.3425 18.5608 94.3893 17.6265C93.4175 16.6808 92.6806 15.6104 92.1781 14.4134C91.6756 13.2165 91.4243 11.9338 91.4243 10.5638C91.4243 9.20319 91.6756 7.92046 92.1781 6.71422C92.6806 5.50977 93.4179 4.43005 94.3897 3.47721C95.3375 2.54692 96.4598 1.81305 97.692 1.31777C98.9243 0.824553 100.229 0.576872 101.607 0.576872C102.977 0.576872 104.274 0.824553 105.501 1.31777C106.727 1.81278 107.828 2.53152 108.798 3.47721C109.769 4.4397 110.508 5.52478 111.014 6.73495C111.523 7.94298 111.776 9.21999 111.776 10.5642" fill="#CF1C23"/>
</svg>
